<?xml version="1.0" encoding="utf-8"?>
<!-- Generator: Adobe Illustrator 23.0.5, SVG Export Plug-In . SVG Version: 6.00 Build 0)  -->
<!DOCTYPE svg PUBLIC "-//W3C//DTD SVG 1.1//EN" "http://www.w3.org/Graphics/SVG/1.1/DTD/svg11.dtd" [
	<!ENTITY ns_extend "http://ns.adobe.com/Extensibility/1.0/">
	<!ENTITY ns_ai "http://ns.adobe.com/AdobeIllustrator/10.0/">
	<!ENTITY ns_graphs "http://ns.adobe.com/Graphs/1.0/">
	<!ENTITY ns_vars "http://ns.adobe.com/Variables/1.0/">
	<!ENTITY ns_imrep "http://ns.adobe.com/ImageReplacement/1.0/">
	<!ENTITY ns_sfw "http://ns.adobe.com/SaveForWeb/1.0/">
	<!ENTITY ns_custom "http://ns.adobe.com/GenericCustomNamespace/1.0/">
	<!ENTITY ns_adobe_xpath "http://ns.adobe.com/XPath/1.0/">
]>
<svg version="1.1" id="Layer_1" xmlns:x="&ns_extend;" xmlns:i="&ns_ai;" xmlns:graph="&ns_graphs;"
	 xmlns="http://www.w3.org/2000/svg" xmlns:xlink="http://www.w3.org/1999/xlink" x="0px" y="0px" viewBox="0 0 960 960"
	 style="enable-background:new 0 0 960 960;" xml:space="preserve">
<style type="text/css">
	.st0{fill:#191919;}
</style>
<metadata>
	<sfw  xmlns="&ns_sfw;">
		<slices></slices>
		<sliceSourceBounds  bottomLeftOrigin="true" height="294.1" width="442.4" x="258.8" y="-627.1"></sliceSourceBounds>
		<optimizationSettings>
			<targetSettings  fileFormat="JPEGFormat" targetSettingsID="0">
				
					<JPEGFormat  blurAmount="0" embedICCProfile="false" matteColor="#FFFFFF" noMatteColor="false" optimized="true" progressive="true" quality="100">
					</JPEGFormat>
			</targetSettings>
		</optimizationSettings>
	</sfw>
</metadata>
<g>
	<path class="st0" d="M439.2,339.5c-0.6,0.3-1.1,0.5-1.7,0.8c-0.3,0.2-0.7,0.4-1,0.5c-0.1,0-0.1,0.1-0.2,0.1
		c-0.1,0.1-0.2,0.1-0.3,0.2c-0.1,0.1-0.3,0.1-0.4,0.2l-0.7,0.4c-0.2,0.1-0.3,0.2-0.5,0.3c-0.1,0-0.1,0.1-0.2,0.1
		c-0.3,0.1-0.5,0.3-0.7,0.4c-0.1,0-0.2,0.1-0.2,0.1c-0.1,0.1-0.2,0.1-0.3,0.2c-0.4,0.2-0.8,0.4-1.1,0.6c-0.2,0.1-0.4,0.2-0.6,0.3
		c-0.1,0.1-0.3,0.2-0.4,0.2c0,0-0.1,0.1-0.1,0.1c-0.3,0.2-0.6,0.4-0.9,0.5l-0.7,0.5l0,0c-0.6,0.4-1.2,0.8-1.9,1.2
		c-0.3,0.2-0.6,0.4-0.9,0.6c-0.5,0.3-1,0.7-1.5,1c-0.4,0.3-0.8,0.5-1.1,0.8c-0.2,0.1-0.3,0.2-0.5,0.3l-7.2-7.6l-1.8,1.4
		c-4.9,3.9-9.5,8.3-13.7,13l-1.5,1.7l7.2,7.6c-0.1,0.1-0.2,0.2-0.3,0.4c-0.6,0.7-1.1,1.4-1.6,2c-0.2,0.3-0.5,0.6-0.7,0.9
		c-0.1,0.2-0.2,0.3-0.4,0.5c-0.5,0.6-1,1.3-1.4,1.9c0,0,0,0,0,0c0,0,0,0,0,0c-0.8,1.1-1.4,2-1.9,2.8l0,0.1c-0.1,0.1-0.1,0.2-0.2,0.3
		l-0.5,0.8c-0.3,0.5-0.6,0.9-0.9,1.4c-0.1,0.2-0.3,0.5-0.5,0.7l-9.6-4.2l-1.1,2c-3,5.4-5.6,11.2-7.6,17.3l-0.7,2.2l9.6,4.2
		c0,0.1-0.1,0.2-0.1,0.3c-0.5,1.5-0.9,3.2-1.3,4.9l-0.1,0.3v0.1c-0.2,0.7-0.3,1.5-0.5,2.2c-0.6,2.7-1,5.4-1.3,8.1h-10.5l-0.2,2.3
		c-0.3,3-0.4,6.2-0.4,9.4c0,3.2,0.1,6.4,0.4,9.4l0.2,2.3h10.5c0.1,0.7,0.2,1.4,0.3,2.1c0.1,0.7,0.2,1.4,0.3,2.2
		c0.1,0.6,0.2,1.1,0.3,1.6c0,0.2,0.1,0.5,0.1,0.7l0,0.2c0.1,0.6,0.2,1.2,0.4,1.7c0.1,0.7,0.3,1.3,0.4,2c0,0.1,0,0.2,0.1,0.3
		c0.2,0.6,0.3,1.2,0.5,1.8l-9.9,4l8.7,21.8l10-4c0,0,0,0,0,0l0.1,0.2l0,0c0,0.1,0.1,0.1,0.1,0.2c0.1,0.2,0.2,0.4,0.3,0.5
		c0.1,0.1,0.2,0.3,0.2,0.4c0,0.1,0.1,0.1,0.1,0.2l0.2,0.3c0.1,0.1,0.2,0.3,0.3,0.4l0,0c0,0,0,0,0,0.1c0.1,0.2,0.2,0.3,0.3,0.5
		c0.2,0.4,0.5,0.8,0.7,1.1c0.1,0.1,0.1,0.2,0.2,0.3c0.1,0.2,0.2,0.4,0.4,0.6c0.1,0.2,0.2,0.4,0.4,0.6c0.1,0.2,0.2,0.3,0.3,0.5
		c0,0.1,0.1,0.2,0.1,0.2c0.1,0.1,0.1,0.2,0.2,0.3c0.2,0.2,0.3,0.5,0.5,0.7l0.2,0.3c0.2,0.2,0.3,0.5,0.5,0.7c0.1,0.2,0.3,0.4,0.3,0.5
		c0.3,0.5,0.7,1,1,1.5l0.1,0.1c0.4,0.6,0.9,1.2,1.4,1.8c0,0,0,0.1,0.1,0.1l-7.7,7.5l16.4,16.7l7.6-7.5c0.2,0.2,0.5,0.4,0.7,0.5
		c0.2,0.2,0.5,0.3,0.7,0.5c0.3,0.2,0.6,0.5,0.9,0.7l0.8,0.6c0.1,0.1,0.3,0.2,0.3,0.2c0.1,0.1,0.2,0.2,0.4,0.3
		c0.2,0.1,0.4,0.3,0.5,0.4c0.2,0.1,0.4,0.3,0.6,0.4c0.1,0.1,0.2,0.2,0.4,0.2l0.4,0.2c0.2,0.1,0.4,0.3,0.5,0.4
		c0.1,0.1,0.2,0.1,0.3,0.2l0.2,0.2c0.2,0.1,0.4,0.3,0.5,0.4c0.2,0.1,0.4,0.2,0.5,0.3c0.1,0.1,0.2,0.1,0.3,0.2
		c0.2,0.1,0.4,0.2,0.5,0.3c0.1,0.1,0.3,0.2,0.4,0.3c0,0,0.1,0.1,0.1,0.1c0.3,0.2,0.5,0.3,0.8,0.5c0.4,0.3,0.9,0.5,1.3,0.8
		c0.1,0,0.2,0.1,0.2,0.1l0.1,0c0.1,0.1,0.3,0.2,0.4,0.2l-4.1,9.9l21.6,9.1l4.4-10.5h0.5v-1.2v-20.8v-1.7l0,0l0-0.8h-1.9
		c-3.1-1.2-6-2.7-8.8-4.3c-1.4-0.8-2.8-1.7-4.3-2.7c-0.7-0.5-1.4-0.9-2.1-1.5c-0.7-0.5-1.4-1-2-1.5l-0.1-0.1c-0.1,0-0.1-0.1-0.2-0.1
		c0,0,0,0-0.1-0.1l-0.2-0.1c-0.5-0.4-1-0.8-1.5-1.2l-0.1-0.1c-0.1-0.1-0.1-0.1-0.2-0.2l-0.1-0.1c-0.4-0.4-0.9-0.8-1.3-1.2
		c-0.5-0.5-1-0.9-1.5-1.4l-0.2-0.1c-0.5-0.4-0.9-0.9-1.4-1.4c-0.5-0.5-1-1-1.5-1.6c-1-1.1-2-2.2-3-3.4c-0.4-0.5-0.8-1-1.2-1.5
		c-0.1-0.1-0.2-0.3-0.3-0.4l-0.1-0.1c-0.6-0.7-1.1-1.4-1.6-2.2c-0.8-1.1-1.5-2.2-2.2-3.3l-0.1-0.1c-0.7-1.1-1.4-2.3-2-3.4l-0.1-0.1
		c-0.5-0.9-0.9-1.7-1.4-2.6c0-0.1-0.1-0.2-0.1-0.3c-0.3-0.7-0.6-1.3-0.9-1.8c-0.3-0.7-0.6-1.4-0.9-2.1c-0.1-0.3-0.3-0.6-0.4-0.9l0,0
		c-0.4-1-0.7-1.9-1.1-2.9c-0.1-0.3-0.2-0.7-0.4-1c-0.3-0.9-0.6-1.8-0.9-2.8c-0.1-0.4-0.2-0.8-0.3-1.2c-0.2-0.9-0.5-1.8-0.7-2.7
		c0-0.2-0.1-0.4-0.1-0.6c-0.1-0.6-0.3-1.3-0.4-1.9c0-0.1,0-0.2,0-0.3c-0.1-0.7-0.3-1.4-0.4-2.1c0-0.1,0-0.3-0.1-0.4
		c-0.1-0.7-0.2-1.4-0.3-2.2c0-0.3-0.1-0.6-0.1-1c0-0.5-0.1-0.9-0.1-1.4c-0.1-0.7-0.1-1.4-0.2-2.2c0-0.7-0.1-1.3-0.1-2l0-0.1
		c0,0,0,0,0-0.1l0,0l0-0.2c0-0.7,0-1.4,0-2.1c0-0.7,0-1.5,0-2.2l0-0.1c0-0.5,0-1.1,0.1-1.7l0,0l0-0.2c0-0.3,0-0.6,0.1-1
		c0,0,0,0,0-0.1l0.2-1.8c0-0.3,0.1-0.6,0.1-0.8l0-0.2l0.1-0.4l0,0c0-0.1,0-0.1,0-0.2c0-0.2,0.1-0.4,0.1-0.5c0.1-0.6,0.1-1.1,0.2-1.7
		c0.2-1.4,0.5-2.7,0.7-3.9c0.1-0.4,0.2-0.8,0.3-1.2c0.2-1,0.5-2.1,0.8-3.2c0.1-0.4,0.2-0.8,0.4-1.3c0.2-0.8,0.5-1.7,0.8-2.5
		c0.2-0.6,0.4-1.2,0.7-1.9c0.3-0.7,0.5-1.4,0.8-2.1c0-0.1,0.1-0.2,0.1-0.3c0.2-0.5,0.4-1,0.7-1.6c0.3-0.6,0.5-1.1,0.8-1.7
		c0.1-0.2,0.2-0.4,0.3-0.6c0.2-0.4,0.4-0.9,0.6-1.3c0.3-0.5,0.5-1,0.8-1.5c0.1-0.3,0.3-0.5,0.4-0.8c0.3-0.5,0.5-1,0.8-1.4
		c0.3-0.6,0.7-1.2,1.1-1.8c0.1-0.2,0.3-0.5,0.5-0.7c0.1-0.2,0.2-0.3,0.3-0.5c0.5-0.8,1-1.5,1.6-2.3c0.2-0.3,0.4-0.6,0.6-0.9
		c0.6-0.8,1.1-1.5,1.7-2.3c0-0.1,0.1-0.1,0.1-0.2c0.2-0.3,0.5-0.6,0.7-0.8c0.6-0.7,1.2-1.4,1.7-2.1c0.3-0.4,0.7-0.7,1-1.1
		c0.6-0.7,1.2-1.3,1.9-2l0.3-0.3c0.3-0.3,0.6-0.6,0.9-0.9c0.5-0.5,1-1,1.5-1.4c0.2-0.2,0.4-0.3,0.6-0.5c0.4-0.3,0.7-0.6,1.1-0.9
		c0.4-0.3,0.8-0.7,1.2-1c0.3-0.3,0.6-0.5,0.9-0.8l0.2-0.1l0.2-0.2c0.3-0.2,0.6-0.5,0.9-0.7c0.3-0.2,0.5-0.4,0.8-0.6
		c1.5-1.1,3.1-2.2,4.7-3.2l0.2-0.2c0.2-0.1,0.4-0.2,0.6-0.4c1.1-0.7,2.2-1.3,3.5-2l0.1-0.1c0.4-0.2,0.8-0.4,1.3-0.7
		c1.1-0.5,2.1-1,3.1-1.5c0.4-0.2,0.8-0.3,1.2-0.5c0.3-0.1,0.6-0.2,0.9-0.4h1.9v-0.8v-21.2v-3.4l-3.2,1
		C447.4,336,443.2,337.6,439.2,339.5z"/>
	<path class="st0" d="M585.4,414.3h-10.5c0-0.3-0.1-0.6-0.1-0.9c-0.1-0.6-0.2-1.2-0.2-1.8l-0.1-0.5c-0.1-0.4-0.1-0.7-0.2-1.1
		l-0.1-0.6c-0.1-0.7-0.3-1.5-0.4-2.1c-0.1-0.7-0.3-1.4-0.4-2c-0.1-0.5-0.2-1.1-0.4-1.7l-0.1-0.4c-0.1-0.5-0.2-0.9-0.3-1.3l9.9-3.9
		l-8.7-21.8l-10,4l0-0.1c-0.2-0.4-0.4-0.7-0.6-1.1l-0.2-0.3c-0.1-0.2-0.2-0.4-0.3-0.6c-0.5-0.9-1-1.8-1.6-2.7c0,0-0.1-0.1-0.1-0.1
		c-0.3-0.5-0.6-0.9-0.9-1.4c-0.1-0.2-0.3-0.5-0.4-0.7c-0.5-0.7-0.9-1.3-1.3-1.9c-0.3-0.5-0.7-1-1.1-1.5c-0.2-0.3-0.4-0.6-0.7-0.9
		c-0.2-0.3-0.5-0.6-0.7-1c-0.5-0.6-1-1.3-1.4-1.8c-0.2-0.2-0.4-0.5-0.6-0.7l-1.7-2.1l0,0l0,0l-14.7,14.8l-1.8,1.8l0,0l-0.1,0.1
		l1.4,1.7c0.1,0.1,0.2,0.3,0.4,0.5c2.2,2.8,4.2,5.9,5.9,9.1l0.1,0.2c0.4,0.8,0.9,1.6,1.3,2.6c0.3,0.7,0.7,1.4,1.1,2.2
		c0.9,2,1.8,4.1,2.5,6.3c0.1,0.2,0.2,0.5,0.2,0.7l0.1,0.3c0.2,0.7,0.4,1.3,0.6,2c0.2,0.7,0.4,1.5,0.6,2.3c0.1,0.3,0.1,0.6,0.2,0.8
		c0.1,0.5,0.3,1.1,0.4,1.6l0,0.1c0,0.1,0.1,0.3,0.1,0.4c0.1,0.3,0.1,0.5,0.2,0.8l0,0.2c0,0.2,0.1,0.4,0.1,0.5l0,0.2
		c0.1,0.4,0.2,0.8,0.2,1.2l0,0.2c0,0.2,0.1,0.3,0.1,0.5c0,0,0,0,0,0.1c0.1,0.4,0.1,0.8,0.2,1.2l0,0.1c0.1,0.5,0.1,0.9,0.2,1.4
		c0.1,0.5,0.1,1,0.2,1.6c0.1,0.8,0.2,1.6,0.2,2.4c0,0,0,0,0,0c0,0.1,0,0.2,0,0.3c0,0.1,0,0.3,0,0.4l0,0.1c0,0.1,0,0.2,0,0.3
		c0,0.1,0,0.1,0,0.2l0,0.1l0,0.2c0,0.1,0,0.1,0,0.2l0,0.2c0,0.4,0,0.9,0,1.3l0,0.1c0,0.5,0,0.9,0,1.4c0,0.3,0,0.6,0,1l0,1.6
		l19.3,9.6l3.1,1.6l0,0l0.1,0l0.2-2h10.5l0.2-2.3c0.3-2.9,0.4-6.1,0.4-9.5c0-3.3-0.1-6.5-0.4-9.4L585.4,414.3z"/>
	<path class="st0" d="M304.9,593.3c-3.9-3.2-9.7-4.7-17.3-4.7h-19.8v-18.2h39v-7.7h-48v63.7h27.3c7.9,0,14.1-1.7,18.3-5
		c4.3-3.3,6.4-8.1,6.4-14.4C310.8,601,308.9,596.5,304.9,593.3z M297.7,616.1c-2.7,2-6.7,3-11.9,3h-17.9v-23.4h17.9
		c10.7,0,16,3.9,16,11.6C301.8,611.2,300.4,614.1,297.7,616.1z"/>
	<path class="st0" d="M329.9,589.5c-0.2,6.9-0.8,12.4-1.5,16.6c-0.8,4.2-2,7.3-3.5,9.4c-1.6,2.1-3.7,3.1-6.3,3.1
		c-1,0-1.9-0.1-2.9-0.4l-0.6,8.1c1.9,0.5,3.9,0.7,5.7,0.7c4.1,0,7.4-1.4,9.8-4.1c2.4-2.8,4.2-6.9,5.3-12.3
		c1.1-5.5,1.8-12.6,2.1-21.4l0.6-18.6h28.2v55.8h8.9v-63.7h-44.8L329.9,589.5z"/>
	<path class="st0" d="M415.5,562.7l-28.8,63.7h9.4l7-15.9h33.8l7,15.9h9.6l-28.9-63.7H415.5z M406.3,603.1l13.7-31.2l13.7,31.2
		H406.3z"/>
	<path class="st0" d="M479.8,573.7c3.7-2.1,7.9-3.1,12.5-3.1c7,0,12.8,2.5,17.5,7.4l5.8-5.6c-2.8-3.2-6.3-5.6-10.3-7.2
		c-4-1.6-8.5-2.4-13.3-2.4c-6.2,0-11.9,1.4-16.9,4.1c-5,2.8-9,6.6-11.8,11.4c-2.8,4.8-4.3,10.3-4.3,16.3c0,6,1.4,11.5,4.3,16.3
		c2.8,4.8,6.8,8.6,11.8,11.4c5,2.8,10.6,4.1,16.9,4.1c4.9,0,9.3-0.8,13.4-2.5c4.1-1.7,7.5-4.1,10.4-7.3l-5.8-5.6
		c-4.7,5-10.6,7.5-17.5,7.5c-4.6,0-8.8-1-12.5-3.1c-3.7-2.1-6.7-4.9-8.8-8.6c-2.1-3.6-3.2-7.7-3.2-12.2c0-4.5,1.1-8.6,3.2-12.2
		C473.2,578.6,476.1,575.8,479.8,573.7z"/>
	<polygon class="st0" points="525.7,570.6 547.5,570.6 547.5,626.3 556.4,626.3 556.4,570.6 578.2,570.6 578.2,562.7 525.7,562.7 	
		"/>
	<polygon class="st0" points="598.4,597.9 630.3,597.9 630.3,590.1 598.4,590.1 598.4,570.6 634.2,570.6 634.2,562.7 589.3,562.7 
		589.3,626.3 635.5,626.3 635.5,618.4 598.4,618.4 	"/>
	<path class="st0" d="M694.1,568.6c-4.7-3.9-11.2-5.9-19.5-5.9h-24.8v63.7h9.1V607h15.7c8.2,0,14.7-2,19.5-5.9
		c4.7-3.9,7.1-9.4,7.1-16.3S698.8,572.5,694.1,568.6z M687.5,595.4c-3,2.5-7.4,3.7-13.2,3.7h-15.5v-28.6h15.5
		c5.8,0,10.2,1.2,13.2,3.7c3,2.5,4.5,6,4.5,10.6C692.1,589.5,690.6,593,687.5,595.4z"/>
	<path class="st0" d="M551.9,446.3L551.9,446.3c0.1-0.2,0.1-0.4,0.2-0.6C552,445.9,552,446.1,551.9,446.3z"/>
	<path class="st0" d="M526,506.9c0.2-0.1,0.5-0.3,0.7-0.4c0.5-0.3,1-0.6,1.5-0.9c0.7-0.4,1.4-0.9,2.1-1.3c0.7-0.5,1.4-0.9,2.1-1.4
		c0.4-0.3,0.7-0.5,1.1-0.8c0.1-0.1,0.2-0.2,0.4-0.3c0.4-0.3,0.8-0.5,1.1-0.8c0.2-0.2,0.4-0.3,0.6-0.5c0.4-0.3,0.7-0.5,1.1-0.8
		c0,0,0,0,0,0c0.1-0.1,0.2-0.1,0.3-0.2l0,0c0.7-0.5,1.3-1,2-1.6c4.1-3.3,7.9-7,11.4-11.1v0l0,0c0.2-0.3,0.4-0.5,0.6-0.8
		c0.3-0.4,0.7-0.8,1-1.2c4-4.8,7.5-10.1,10.4-15.7c0.3-0.6,0.7-1.3,1-2c0.2-0.3,0.3-0.7,0.5-1c0.3-0.7,0.7-1.4,1-2.1
		c0.3-0.7,0.6-1.4,0.9-2.1c1.1-2.5,2-5.1,2.8-7.7l-16.7-8.3v0v0l-62.7-31.1v-63.3c13.7,1.7,26.3,7.1,36.7,15.2L539,354
		c-0.1-0.1-0.1-0.1-0.2-0.2c-1.3-1-2.6-2-3.9-3c-0.3-0.2-0.6-0.5-0.9-0.7c-0.3-0.3-0.7-0.5-1.1-0.8c-0.3-0.2-0.7-0.5-1-0.7
		c-0.6-0.4-1.1-0.8-1.7-1.1c0,0,0,0-0.1,0c-0.6-0.4-1.2-0.8-1.8-1.1c-1.3-0.8-2.6-1.5-3.9-2.3c-0.7-0.4-1.3-0.7-2-1
		c-12.7-6.5-27.1-10.2-42.4-10.2c-3.1,0-6.2,0.2-9.2,0.5v8.7v9.8v148.2v0v9.8v8.7v0c0.2,0,0.4,0.1,0.6,0.1c1.3,0.1,2.5,0.2,3.8,0.3
		c0.7,0,1.4,0.1,2.1,0.1c0.9,0,1.8,0,2.7,0c1.5,0,3.1,0,4.6-0.1c0.6,0,1.3-0.1,1.9-0.1c0.9,0,1.8-0.1,2.7-0.2c0.6,0,1.1-0.1,1.7-0.2
		c0.3,0,0.6,0,0.9-0.1c0.3,0,0.6-0.1,0.9-0.1c0.1,0,0.3,0,0.4-0.1c0.5-0.1,1-0.1,1.5-0.2c1-0.2,1.9-0.3,2.9-0.5
		c0.7-0.1,1.4-0.3,2-0.4c0.3-0.1,0.6-0.1,0.8-0.2c0.4-0.1,0.9-0.2,1.4-0.3c0.5-0.1,0.9-0.2,1.3-0.3c0.2,0,0.3-0.1,0.5-0.1
		c0.2,0,0.3-0.1,0.5-0.1v0c0.8-0.2,1.5-0.4,2.2-0.7c0.7-0.2,1.5-0.5,2.2-0.7c0.7-0.3,1.5-0.5,2.2-0.7c3.6-1.3,7.2-2.8,10.6-4.5l0,0
		c0.2-0.1,0.4-0.2,0.6-0.3c0.4-0.2,0.9-0.4,1.3-0.7c0.1,0,0.1-0.1,0.2-0.1c0.6-0.3,1.2-0.7,1.8-1c0,0,0,0,0.1,0
		C525.5,507.2,525.7,507.1,526,506.9C526,507,526,507,526,506.9z M544.7,463.3C544.7,463.3,544.7,463.3,544.7,463.3
		c-1.7,3-3.7,5.9-5.8,8.6l0,0c-0.4,0.5-0.8,1.1-1.3,1.6c-2.3,2.8-4.8,5.4-7.4,7.8c-0.4,0.4-0.8,0.7-1.2,1.1c-1,0.9-2.1,1.8-3.1,2.5
		c-0.5,0.4-1.1,0.8-1.6,1.3c0,0-0.1,0-0.1,0.1c-0.7,0.5-1.4,1-2.2,1.5c-0.6,0.4-1.2,0.8-1.8,1.2c-0.4,0.3-0.8,0.5-1.2,0.7
		c-0.7,0.5-1.5,0.9-2.2,1.3c-0.7,0.4-1.3,0.8-2,1.1c-0.7,0.4-1.4,0.7-2,1c-0.1,0.1-0.3,0.1-0.4,0.2c-1.1,0.5-2.2,1-3.3,1.5
		c-0.6,0.2-1.1,0.5-1.7,0.7c-0.6,0.2-1.1,0.4-1.7,0.7c-0.5,0.2-0.9,0.3-1.4,0.5c0,0,0,0,0,0c-0.2,0.1-0.3,0.1-0.5,0.2
		c-0.6,0.2-1.1,0.4-1.7,0.5c-0.7,0.2-1.5,0.4-2.2,0.7c-0.7,0.2-1.4,0.4-2,0.5c-0.2,0-0.3,0.1-0.5,0.1c-0.7,0.2-1.5,0.3-2.3,0.5
		c-0.9,0.2-1.7,0.4-2.6,0.5c0,0,0,0,0,0c-0.3,0.1-0.7,0.1-1.1,0.2c-0.7,0.1-1.4,0.2-2.1,0.3v-64.4L544.7,463.3z"/>
</g>
</svg>
